<?xml version="1.0" encoding="UTF-8"?>
<svg width="345px" height="74px" viewBox="0 0 345 74" version="1.1" xmlns="http://www.w3.org/2000/svg" xmlns:xlink="http://www.w3.org/1999/xlink">
    <!-- Generator: Sketch 43.2 (39069) - http://www.bohemiancoding.com/sketch -->
    <title>Group</title>
    <desc>Created with Sketch.</desc>
    <defs></defs>
    <g id="Coming-Soon" stroke="none" stroke-width="1" fill="none" fill-rule="evenodd">
        <g id="Desktop-HD" transform="translate(-553.000000, -150.000000)" fill="#FFFFFF">
            <g id="Group" transform="translate(553.000000, 150.000000)">
                <g id="Group-Hub-Logo-2">
                    <path d="M46.5164839,6.29758423 C46.5164839,9.62043019 43.8319943,12.3230116 40.5313923,12.3230116 C37.2307903,12.3230116 34.5463007,9.62043019 34.5463007,6.29758423 C34.5463007,2.97473828 37.2307903,0.272156907 40.5313923,0.272156907 C43.8319943,0.272156907 46.5164839,2.97473828 46.5164839,6.29758423" id="Shape"></path>
                    <path d="M46.2524357,10.5065224 C44.9762029,12.4116208 42.7758016,13.6521499 40.3553602,13.6521499 C36.3946378,13.6521499 33.2260599,10.4179132 33.2260599,6.47480269 C33.2260599,4.92414124 33.7101482,3.46208902 34.5903087,2.26586448 L18.2633309,18.7028758 L36.0425736,18.7028758 L36.0865816,18.6585712 L52.9856637,35.6715425 L52.9856637,17.1522143 L46.2524357,10.5065224 L46.2524357,10.5065224 Z" id="Shape"></path>
                    <path d="M5.98509159,26.456183 C9.28569356,26.456183 11.9701832,29.1587644 11.9701832,32.4816103 C11.9701832,35.8044563 9.28569356,38.5070377 5.98509159,38.5070377 C2.68448961,38.5070377 0,35.8044563 0,32.4816103 C0.0440080264,29.1587644 2.68448961,26.456183 5.98509159,26.456183" id="Shape"></path>
                    <path d="M10.2098621,26.7220107 C12.1022073,28.0068445 13.334432,30.2220751 13.334432,32.6588288 C13.334432,36.6462439 10.1218461,39.8361761 6.20513172,39.8361761 C4.6648508,39.8361761 3.21258592,39.3488253 2.02436921,38.4627331 L18.351347,54.8997444 L18.351347,37.0892901 L18.307339,37.0449855 L35.2064211,20.0320142 L16.8110661,20.0320142 L10.2098621,26.7220107 L10.2098621,26.7220107 Z" id="Shape"></path>
                    <path d="M26.4048158,67.4822544 C26.4048158,64.1594084 29.0893054,61.456827 32.3899074,61.456827 C35.6905094,61.456827 38.374999,64.1594084 38.374999,67.4822544 C38.374999,70.8051003 35.6905094,73.5076817 32.3899074,73.5076817 C29.0893054,73.4633771 26.4048158,70.7607957 26.4048158,67.4822544" id="Shape"></path>
                    <path d="M26.668864,63.2290116 C27.9450967,61.3239132 30.1454981,60.0833841 32.5659395,60.0833841 C36.5266619,60.0833841 39.6952398,63.3176208 39.6952398,67.2607313 C39.6952398,68.8113928 39.2111515,70.273445 38.330991,71.4696695 L54.6579688,55.0326582 L36.8787261,55.0326582 L36.8347181,55.0769628 L19.9356359,38.0639915 L19.9356359,56.5833197 L26.668864,63.2290116 L26.668864,63.2290116 Z" id="Shape"></path>
                    <path d="M66.760176,47.2350464 C63.459574,47.2350464 60.7750844,44.532465 60.7750844,41.209619 C60.7750844,37.8867731 63.459574,35.1841917 66.760176,35.1841917 C70.060778,35.1841917 72.7452676,37.8867731 72.7452676,41.209619 C72.7452676,44.532465 70.060778,47.2350464 66.760176,47.2350464" id="Shape"></path>
                    <path d="M62.5354055,47.0135233 C60.6430603,45.7286895 59.4108356,43.5134589 59.4108356,41.0767052 C59.4108356,37.0892901 62.6234215,33.8993579 66.5401359,33.8993579 C68.0804168,33.8993579 69.5326817,34.3867087 70.7208984,35.2728009 L54.3939206,18.8357896 L54.3939206,36.6462439 L54.4379286,36.6905485 L37.5388465,53.7035198 L55.8901935,53.7035198 L62.5354055,47.0135233 L62.5354055,47.0135233 Z" id="Shape"></path>
                </g>
                <path d="M85.1298701,34.3922785 C85.1298701,44.0223131 92.857985,51.8025106 102.423554,51.8025106 L111.93508,51.8025106 C113.826576,51.8025106 115.393816,50.2247083 115.393816,48.3204641 L115.393816,34.3922785 C115.393816,32.4880344 113.826576,30.9102321 111.93508,30.9102321 L105.88229,30.9102321 C103.990794,30.9102321 102.423554,32.4880344 102.423554,34.3922785 C102.423554,36.2965226 103.990794,37.8743249 105.88229,37.8743249 L108.476343,37.8743249 L108.476343,44.8384177 L102.423554,44.8384177 C96.695021,44.8384177 92.0473436,40.1594179 92.0473436,34.3922785 C92.0473436,28.6251391 96.695021,23.9461392 102.423554,23.9461392 L111.070395,23.9461392 C112.961892,23.9461392 114.529132,22.368337 114.529132,20.4640928 C114.529132,18.5598487 112.961892,16.9820464 111.070395,16.9820464 L102.423554,16.9820464 C92.857985,16.9820464 85.1298701,24.7622439 85.1298701,34.3922785 L85.1298701,34.3922785 Z M135.281552,34.3922785 C135.281552,36.2965226 136.848793,37.8743249 138.740289,37.8743249 C140.631786,37.8743249 142.199026,36.2965226 142.199026,34.3922785 C142.199026,28.6251391 137.551348,23.9461392 131.822816,23.9461392 L123.175974,23.9461392 C121.284477,23.9461392 119.717237,25.5239415 119.717237,27.4281857 L119.717237,48.3204641 C119.717237,50.2247083 121.284477,51.8025106 123.175974,51.8025106 C125.067471,51.8025106 126.634711,50.2247083 126.634711,48.3204641 L126.634711,30.9102321 L131.822816,30.9102321 C133.714312,30.9102321 135.281552,32.4880344 135.281552,34.3922785 L135.281552,34.3922785 Z M143.496052,37.8743249 C143.496052,45.5457084 149.71097,51.8025106 157.330999,51.8025106 C164.951028,51.8025106 171.165946,45.5457084 171.165946,37.8743249 C171.165946,30.2029414 164.951028,23.9461392 157.330999,23.9461392 C149.71097,23.9461392 143.496052,30.2029414 143.496052,37.8743249 L143.496052,37.8743249 Z M150.413526,37.8743249 C150.413526,34.0114297 153.493963,30.9102321 157.330999,30.9102321 C161.168035,30.9102321 164.248472,34.0114297 164.248472,37.8743249 C164.248472,41.7372201 161.168035,44.8384177 157.330999,44.8384177 C153.493963,44.8384177 150.413526,41.7372201 150.413526,37.8743249 L150.413526,37.8743249 Z M200.99755,27.4281857 C200.99755,25.5239415 199.43031,23.9461392 197.538813,23.9461392 C195.647317,23.9461392 194.080077,25.5239415 194.080077,27.4281857 L194.080077,44.8384177 L187.162603,44.8384177 C183.325567,44.8384177 180.24513,41.7372201 180.24513,37.8743249 L180.24513,27.4281857 C180.24513,25.5239415 178.67789,23.9461392 176.786393,23.9461392 C174.894896,23.9461392 173.327656,25.5239415 173.327656,27.4281857 L173.327656,37.8743249 C173.327656,45.5457084 179.542574,51.8025106 187.162603,51.8025106 L197.538813,51.8025106 C199.43031,51.8025106 200.99755,50.2247083 200.99755,48.3204641 L200.99755,27.4281857 Z M219.155918,51.8025106 C226.775947,51.8025106 232.990865,45.5457084 232.990865,37.8743249 C232.990865,30.2029414 226.775947,23.9461392 219.155918,23.9461392 L208.779708,23.9461392 C206.888211,23.9461392 205.320971,25.5239415 205.320971,27.4281857 L205.320971,58.7666034 C205.320971,60.6708475 206.888211,62.2486498 208.779708,62.2486498 C210.671204,62.2486498 212.238444,60.6708475 212.238444,58.7666034 L212.238444,51.8025106 L219.155918,51.8025106 Z M212.238444,44.8384177 L212.238444,30.9102321 L219.155918,30.9102321 C222.992954,30.9102321 226.073391,34.0114297 226.073391,37.8743249 C226.073391,41.7372201 222.992954,44.8384177 219.155918,44.8384177 L212.238444,44.8384177 Z M257.634364,37.8743249 L274.928047,37.8743249 L274.928047,48.3204641 C274.928047,50.2247083 276.495287,51.8025106 278.386784,51.8025106 C280.278281,51.8025106 281.845521,50.2247083 281.845521,48.3204641 L281.845521,20.4640928 C281.845521,18.5598487 280.278281,16.9820464 278.386784,16.9820464 C276.495287,16.9820464 274.928047,18.5598487 274.928047,20.4640928 L274.928047,30.9102321 L257.634364,30.9102321 L257.634364,20.4640928 C257.634364,18.5598487 256.067124,16.9820464 254.175627,16.9820464 C252.28413,16.9820464 250.71689,18.5598487 250.71689,20.4640928 L250.71689,48.3204641 C250.71689,50.2247083 252.28413,51.8025106 254.175627,51.8025106 C256.067124,51.8025106 257.634364,50.2247083 257.634364,48.3204641 L257.634364,37.8743249 Z M312.974151,27.4281857 C312.974151,25.5239415 311.406911,23.9461392 309.515414,23.9461392 C307.623918,23.9461392 306.056678,25.5239415 306.056678,27.4281857 L306.056678,44.8384177 L299.139204,44.8384177 C295.302168,44.8384177 292.221731,41.7372201 292.221731,37.8743249 L292.221731,27.4281857 C292.221731,25.5239415 290.654491,23.9461392 288.762994,23.9461392 C286.871497,23.9461392 285.304257,25.5239415 285.304257,27.4281857 L285.304257,37.8743249 C285.304257,45.5457084 291.519175,51.8025106 299.139204,51.8025106 L309.515414,51.8025106 C311.406911,51.8025106 312.974151,50.2247083 312.974151,48.3204641 L312.974151,27.4281857 Z M324.215045,16.9820464 C324.215045,15.0778023 322.647805,13.5 320.756309,13.5 C318.864812,13.5 317.297572,15.0778023 317.297572,16.9820464 L317.297572,48.3204641 C317.297572,50.2247083 318.864812,51.8025106 320.756309,51.8025106 L331.132519,51.8025106 C338.752548,51.8025106 344.967466,45.5457084 344.967466,37.8743249 C344.967466,30.2029414 338.752548,23.9461392 331.132519,23.9461392 L324.215045,23.9461392 L324.215045,16.9820464 Z M324.215045,44.8384177 L324.215045,30.9102321 L331.132519,30.9102321 C334.969555,30.9102321 338.049992,34.0114297 338.049992,37.8743249 C338.049992,41.7372201 334.969555,44.8384177 331.132519,44.8384177 L324.215045,44.8384177 Z" id="Group-Hub"></path>
            </g>
        </g>
    </g>
</svg>